<svg width="69" height="90" viewBox="0 0 69 90" fill="none" xmlns="http://www.w3.org/2000/svg">
<path d="M25 62.5C30.6281 62.5 35.5399 59.0781 38.976 53.9239C42.4191 48.7592 44.5 41.7107 44.5 34C44.5 26.2893 42.4191 19.2408 38.976 14.0761C35.5399 8.92185 30.6281 5.5 25 5.5C19.3719 5.5 14.4601 8.92185 11.024 14.0761C7.58087 19.2408 5.5 26.2893 5.5 34C5.5 41.7107 7.58087 48.7592 11.024 53.9239C14.4601 59.0781 19.3719 62.5 25 62.5Z" fill="black" stroke="black" stroke-width="3"/>
<ellipse cx="19.3654" cy="31" rx="3.36539" ry="5" fill="white"/>
<path d="M52.896 89.472C49.696 89.472 46.848 88.832 44.352 87.552C41.92 86.336 40 84.512 38.592 82.08C37.184 79.648 36.48 76.736 36.48 73.344C36.48 72.512 36.512 71.648 36.576 70.752C36.64 69.92 36.736 69.056 36.864 68.16C31.616 68.48 26.752 67.872 22.272 66.336C17.792 64.8 13.888 62.528 10.56 59.52C7.232 56.448 4.64 52.768 2.784 48.48C0.928 44.128 0 39.36 0 34.176C0 29.44 0.8 25.024 2.4 20.928C4 16.768 6.304 13.12 9.312 9.984C12.32 6.848 15.936 4.416 20.16 2.688C24.448 0.896 29.184 0 34.368 0C39.552 0 44.256 0.863998 48.48 2.592C52.704 4.32 56.32 6.752 59.328 9.888C62.336 12.96 64.64 16.512 66.24 20.544C67.904 24.576 68.736 28.928 68.736 33.6V72.288C68.736 75.744 68.096 78.752 66.816 81.312C65.536 83.936 63.712 85.952 61.344 87.36C59.04 88.768 56.224 89.472 52.896 89.472ZM52.32 81.216C54.432 81.216 56.16 80.448 57.504 78.912C58.848 77.44 59.52 75.296 59.52 72.48V49.632C56.704 51.296 54.368 53.088 52.512 55.008C50.656 56.864 49.184 58.784 48.096 60.768C47.072 62.688 46.336 64.64 45.888 66.624C45.44 68.544 45.216 70.464 45.216 72.384C45.216 74.24 45.536 75.808 46.176 77.088C46.88 78.432 47.776 79.456 48.864 80.16C49.952 80.864 51.104 81.216 52.32 81.216ZM34.368 60.288C35.392 60.288 36.352 60.256 37.248 60.192C38.144 60.064 39.104 59.872 40.128 59.616C41.024 57.44 42.272 55.232 43.872 52.992C45.536 50.752 47.616 48.544 50.112 46.368C52.672 44.128 55.808 42.048 59.52 40.128V33.6C59.52 29.952 58.88 26.592 57.6 23.52C56.384 20.384 54.624 17.696 52.32 15.456C50.08 13.152 47.424 11.36 44.352 10.08C41.28 8.736 37.952 8.064 34.368 8.064C30.72 8.064 27.36 8.736 24.288 10.08C21.28 11.36 18.624 13.184 16.32 15.552C14.08 17.92 12.32 20.704 11.04 23.904C9.824 27.04 9.216 30.464 9.216 34.176C9.216 37.888 9.824 41.344 11.04 44.544C12.32 47.68 14.08 50.432 16.32 52.8C18.624 55.168 21.28 57.024 24.288 58.368C27.36 59.648 30.72 60.288 34.368 60.288Z" fill="#1BA0D4"/>
</svg>
